<?xml version="1.0" encoding="UTF-8"?>
<svg width="512px" height="512px" viewBox="0 0 512 512" version="1.1" xmlns="http://www.w3.org/2000/svg" xmlns:xlink="http://www.w3.org/1999/xlink">
    <title>512x512</title>
    <g id="512x512" stroke="none" stroke-width="1" fill="none" fill-rule="evenodd">
        <g id="Combined-Shape" fill="#076A85">
            <path d="M488.839391,149.446398 C503.710225,181.88894 512,217.97638 512,256 C512,397.384896 397.384896,512 256,512 C114.615104,512 0,397.384896 0,256 C0,232.232562 3.23892263,209.221614 9.29945993,187.384466 L24.5159989,255 L97.1238538,255 C84.9076417,227.253824 89.4673252,213.380735 110.802904,213.380735 C132.138483,213.380735 136.573809,227.253824 124.108881,255 L124.108881,255 L197.050916,255 L219.359,155.999284 L232.243,155.999284 L254.515999,255 L327.123854,255 C314.907642,227.253824 319.467325,213.380735 340.802904,213.380735 C362.138483,213.380735 366.573809,227.253824 354.108881,255 L354.108881,255 L427.050916,255 L448.393,160.284284 Z M389.003241,350.367029 L70.4065322,350.367029 C115.990638,415.700362 172.554165,448.367029 240.097113,448.367029 C307.640061,448.367029 357.275437,415.700362 389.003241,350.367029 L389.003241,350.367029 Z M256,0 C353.549474,0 438.355444,54.5614219 481.565353,134.831707 L445.183974,144.580076 C404.495886,135.526692 371.499164,131 346.193807,131 C320.501052,131 283.532645,135.66635 235.288584,144.999051 L235.288584,144.999051 L217.059107,144.999288 C175.508546,135.666429 141.886779,131 116.193807,131 C94.5510402,131 64.9072429,134.311171 27.2624149,140.933512 C69.3910347,57.3376195 155.999558,0 256,0 Z"></path>
        </g>
    </g>
</svg>